<svg xmlns:mydata="http://www.w3.org/2000/svg" mydata:contrastcolor="271d3b" mydata:template="Contrast" mydata:presentation="2.5" mydata:layouttype="undefined" mydata:specialfontid="undefined" mydata:id1="021" mydata:id2="138" mydata:companyname="DOM" mydata:companytagline="Gastronomia Brasileira" version="1.1" xmlns="http://www.w3.org/2000/svg" xmlns:xlink="http://www.w3.org/1999/xlink" viewBox="0 0 550 470" class="svg-primary-tile">
    <defs>
        <linearGradient x1="150.51998" y1="235" x2="399.48002" y2="235" gradientUnits="userSpaceOnUse" id="color-13058499547">
            <stop offset="0" stop-color="#8360c3"></stop>
            <stop offset="1" stop-color="#2ebf91"></stop>
        </linearGradient>
    </defs>
    <g fill="url(#color-13058499547)" fill-rule="none" stroke="none" stroke-width="1" stroke-linecap="butt" stroke-linejoin="miter" stroke-miterlimit="10" stroke-dasharray="" stroke-dashoffset="0" font-family="none" font-weight="none" font-size="none" text-anchor="none" style="mix-blend-mode: normal">
        <g data-paper-data="{&quot;isGlobalGroup&quot;:true,&quot;bounds&quot;:{&quot;x&quot;:150.51998295645535,&quot;y&quot;:115.00000000000001,&quot;width&quot;:248.9600340870893,&quot;height&quot;:240}}">
            <g data-paper-data="{&quot;isSecondaryText&quot;:true}" fill-rule="nonzero">
                <path d="M155.48298,355c1.34293,0 2.51069,-0.33573 3.21135,-0.62767v-4.36452h-3.05078v0.978h1.88302v2.65666c-0.46711,0.17516 -1.16776,0.29194 -1.86842,0.29194c-2.27714,0 -3.89741,-1.32833 -3.89741,-3.86822c0,-2.71505 1.35753,-4.16016 3.89741,-4.16016c0.978,0 1.956,0.27734 2.59827,0.62767l0.21896,-1.08018c-0.65687,-0.33573 -1.64947,-0.64227 -2.90481,-0.64227c-3.28434,0 -5.05058,2.02899 -5.05058,5.25494c0,3.18216 2.01439,4.9338 4.963,4.9338z" data-paper-data="{&quot;glyphName&quot;:&quot;G&quot;,&quot;glyphIndex&quot;:0,&quot;firstGlyphOfWord&quot;:true,&quot;word&quot;:1}"></path>
                <path d="M170.82562,354.79564h1.31373l-3.83902,-9.78002h-0.74445l-3.88281,9.78002h1.21155l1.06558,-2.80263h3.82443zM167.89161,346.94243l1.51809,4.05798h-3.07998z" data-paper-data="{&quot;glyphName&quot;:&quot;A&quot;,&quot;glyphIndex&quot;:1,&quot;word&quot;:1}"></path>
                <path d="M179.48597,355c1.83923,0 3.18216,-1.09478 3.18216,-2.75884c0,-1.67866 -1.4743,-2.37932 -2.74424,-3.02159c-1.26994,-0.64227 -1.86842,-1.06558 -1.86842,-1.91221c0,-0.80284 0.70066,-1.4889 1.89762,-1.4889c0.75905,0 1.54729,0.24815 2.17496,0.70066l0.18976,-1.08018c-0.65687,-0.43791 -1.4597,-0.62767 -2.40851,-0.62767c-1.70785,0 -3.03619,0.90502 -3.03619,2.62747c0,1.38672 0.91961,2.04359 2.10197,2.65666c1.4743,0.77364 2.4523,1.12397 2.4523,2.18956c0,1.10938 -0.86123,1.70785 -1.9998,1.70785c-0.78824,0 -1.70785,-0.24815 -2.59827,-0.77364l-0.16057,1.09478c0.54009,0.30654 1.54729,0.68606 2.81723,0.68606z" data-paper-data="{&quot;glyphName&quot;:&quot;S&quot;,&quot;glyphIndex&quot;:2,&quot;word&quot;:1}"></path>
                <path d="M190.80134,354.79564h1.16776v-8.80202h3.31353v-0.978h-7.79482v0.978h3.31353z" data-paper-data="{&quot;glyphName&quot;:&quot;T&quot;,&quot;glyphIndex&quot;:3,&quot;word&quot;:1}"></path>
                <path d="M207.6433,354.79564v-0.91961h-0.32114c-0.27734,0 -0.4817,-0.10218 -0.71526,-0.4963l-1.26994,-2.08738c-0.21896,-0.37952 -0.5109,-0.74445 -0.86123,-0.93421c1.57648,-0.35033 2.20415,-1.4597 2.20415,-2.78804c0,-1.64947 -1.18236,-2.55448 -3.10917,-2.55448h-2.89022v9.78002h1.16776v-4.32073h0.90502c0.78824,0 0.978,0.33573 1.29914,0.87582l1.54729,2.56908c0.45251,0.74445 0.91961,0.94881 1.5035,0.94881c0.18976,0 0.35033,-0.02919 0.54009,-0.07299zM201.84828,345.99362h1.43051c1.37212,0 2.18956,0.4963 2.18956,1.57648c0,1.13857 -0.5109,1.88302 -2.01439,1.88302h-1.60568z" data-paper-data="{&quot;glyphName&quot;:&quot;R&quot;,&quot;glyphIndex&quot;:4,&quot;word&quot;:1}"></path>
                <path d="M216.24264,355c3.09457,0 4.49589,-2.36472 4.49589,-5.15276c0,-2.71505 -1.40132,-5.03598 -4.49589,-5.03598c-3.07998,0 -4.4667,2.43771 -4.4667,5.05058c0,2.71505 1.35753,5.13816 4.4667,5.13816zM216.24264,353.97821c-2.17496,0 -3.19675,-1.79544 -3.19675,-4.11637c0,-2.20415 1.02179,-4.01419 3.19675,-4.01419c2.16036,0 3.22595,1.66406 3.22595,3.99959c0,2.36472 -1.06558,4.13096 -3.22595,4.13096z" data-paper-data="{&quot;glyphName&quot;:&quot;O&quot;,&quot;glyphIndex&quot;:5,&quot;word&quot;:1}"></path>
                <path d="M226.32237,354.79564h1.16776v-7.96999l5.80962,7.96999h0.67146v-9.78002h-1.16776v7.06497l-5.15276,-7.06497h-1.32833z" data-paper-data="{&quot;glyphName&quot;:&quot;N&quot;,&quot;glyphIndex&quot;:6,&quot;word&quot;:1}"></path>
                <path d="M244.02177,355c3.09457,0 4.49589,-2.36472 4.49589,-5.15276c0,-2.71505 -1.40132,-5.03598 -4.49589,-5.03598c-3.07998,0 -4.4667,2.43771 -4.4667,5.05058c0,2.71505 1.35753,5.13816 4.4667,5.13816zM244.02177,353.97821c-2.17496,0 -3.19675,-1.79544 -3.19675,-4.11637c0,-2.20415 1.02179,-4.01419 3.19675,-4.01419c2.16036,0 3.22595,1.66406 3.22595,3.99959c0,2.36472 -1.06558,4.13096 -3.22595,4.13096z" data-paper-data="{&quot;glyphName&quot;:&quot;O&quot;,&quot;glyphIndex&quot;:7,&quot;word&quot;:1}"></path>
                <path d="M254.13878,354.79564h1.16776v-7.45909l3.29893,7.45909h0.72985l3.28434,-7.4007v7.4007h1.16776v-9.78002h-1.29914l-3.48869,7.96999l-3.4595,-7.96999h-1.40132z" data-paper-data="{&quot;glyphName&quot;:&quot;M&quot;,&quot;glyphIndex&quot;:8,&quot;word&quot;:1}"></path>
                <path d="M269.71748,354.79564h1.16776v-9.78002h-1.16776z" data-paper-data="{&quot;glyphName&quot;:&quot;I&quot;,&quot;glyphIndex&quot;:9,&quot;word&quot;:1}"></path>
                <path d="M283.11305,354.79564h1.31373l-3.83902,-9.78002h-0.74445l-3.88281,9.78002h1.21155l1.06558,-2.80263h3.82443zM280.17905,346.94243l1.51809,4.05798h-3.07998z" data-paper-data="{&quot;glyphName&quot;:&quot;A&quot;,&quot;glyphIndex&quot;:10,&quot;lastGlyphOfWord&quot;:true,&quot;word&quot;:1}"></path>
                <path d="M296.23581,354.79564h3.12377c2.04359,0 3.24054,-1.12397 3.24054,-2.74424c0,-1.34293 -0.78824,-2.29174 -2.08738,-2.51069c0.90502,-0.33573 1.51809,-1.09478 1.51809,-2.20415c0,-1.67866 -1.06558,-2.32093 -3.05078,-2.32093h-2.74424zM297.40358,350.13918h1.43051c1.57648,0 2.51069,0.65687 2.51069,1.88302c0,1.16776 -0.67146,1.79544 -2.10197,1.79544h-1.83923zM297.40358,345.99362h1.5035c1.18236,0 1.88302,0.36493 1.88302,1.44511c0,1.09478 -0.83203,1.72245 -2.11657,1.72245h-1.26994z" data-paper-data="{&quot;glyphName&quot;:&quot;B&quot;,&quot;glyphIndex&quot;:11,&quot;firstGlyphOfWord&quot;:true,&quot;word&quot;:2}"></path>
                <path d="M315.00983,354.79564v-0.91961h-0.32114c-0.27734,0 -0.4817,-0.10218 -0.71526,-0.4963l-1.26994,-2.08738c-0.21896,-0.37952 -0.5109,-0.74445 -0.86123,-0.93421c1.57648,-0.35033 2.20415,-1.4597 2.20415,-2.78804c0,-1.64947 -1.18236,-2.55448 -3.10917,-2.55448h-2.89022v9.78002h1.16776v-4.32073h0.90502c0.78824,0 0.978,0.33573 1.29914,0.87582l1.54729,2.56908c0.45251,0.74445 0.91961,0.94881 1.5035,0.94881c0.18976,0 0.35033,-0.02919 0.54009,-0.07299zM309.21481,345.99362h1.43051c1.37212,0 2.18956,0.4963 2.18956,1.57648c0,1.13857 -0.5109,1.88302 -2.01439,1.88302h-1.60568z" data-paper-data="{&quot;glyphName&quot;:&quot;R&quot;,&quot;glyphIndex&quot;:12,&quot;word&quot;:2}"></path>
                <path d="M326.5886,354.79564h1.31373l-3.83902,-9.78002h-0.74445l-3.88281,9.78002h1.21155l1.06558,-2.80263h3.82443zM323.65459,346.94243l1.51809,4.05798h-3.07998z" data-paper-data="{&quot;glyphName&quot;:&quot;A&quot;,&quot;glyphIndex&quot;:13,&quot;word&quot;:2}"></path>
                <path d="M335.24894,355c1.83923,0 3.18216,-1.09478 3.18216,-2.75884c0,-1.67866 -1.4743,-2.37932 -2.74424,-3.02159c-1.26994,-0.64227 -1.86842,-1.06558 -1.86842,-1.91221c0,-0.80284 0.70066,-1.4889 1.89762,-1.4889c0.75905,0 1.54729,0.24815 2.17496,0.70066l0.18976,-1.08018c-0.65687,-0.43791 -1.4597,-0.62767 -2.40851,-0.62767c-1.70785,0 -3.03619,0.90502 -3.03619,2.62747c0,1.38672 0.91961,2.04359 2.10197,2.65666c1.4743,0.77364 2.4523,1.12397 2.4523,2.18956c0,1.10938 -0.86123,1.70785 -1.9998,1.70785c-0.78824,0 -1.70785,-0.24815 -2.59827,-0.77364l-0.16057,1.09478c0.54009,0.30654 1.54729,0.68606 2.81723,0.68606z" data-paper-data="{&quot;glyphName&quot;:&quot;S&quot;,&quot;glyphIndex&quot;:14,&quot;word&quot;:2}"></path>
                <path d="M343.73291,354.79564h1.16776v-9.78002h-1.16776z" data-paper-data="{&quot;glyphName&quot;:&quot;I&quot;,&quot;glyphIndex&quot;:15,&quot;word&quot;:2}"></path>
                <path d="M350.75699,354.79564h5.69285v-0.96341h-4.52508v-8.81662h-1.16776z" data-paper-data="{&quot;glyphName&quot;:&quot;L&quot;,&quot;glyphIndex&quot;:16,&quot;word&quot;:2}"></path>
                <path d="M361.70644,354.79564h5.54688v-0.978h-4.37911v-3.67846h3.48869v-0.978h-3.48869v-3.16756h4.33532v-0.978h-5.50309z" data-paper-data="{&quot;glyphName&quot;:&quot;E&quot;,&quot;glyphIndex&quot;:17,&quot;word&quot;:2}"></path>
                <path d="M372.57697,354.79564h1.16776v-9.78002h-1.16776z" data-paper-data="{&quot;glyphName&quot;:&quot;I&quot;,&quot;glyphIndex&quot;:18,&quot;word&quot;:2}"></path>
                <path d="M386.58752,354.79564v-0.91961h-0.32114c-0.27734,0 -0.4817,-0.10218 -0.71526,-0.4963l-1.26994,-2.08738c-0.21896,-0.37952 -0.5109,-0.74445 -0.86123,-0.93421c1.57648,-0.35033 2.20415,-1.4597 2.20415,-2.78804c0,-1.64947 -1.18236,-2.55448 -3.10917,-2.55448h-2.89022v9.78002h1.16776v-4.32073h0.90502c0.78824,0 0.978,0.33573 1.29914,0.87582l1.54729,2.56908c0.45251,0.74445 0.91961,0.94881 1.5035,0.94881c0.18976,0 0.35033,-0.02919 0.54009,-0.07299zM380.79249,345.99362h1.43051c1.37212,0 2.18956,0.4963 2.18956,1.57648c0,1.13857 -0.5109,1.88302 -2.01439,1.88302h-1.60568z" data-paper-data="{&quot;glyphName&quot;:&quot;R&quot;,&quot;glyphIndex&quot;:19,&quot;word&quot;:2}"></path>
                <path d="M398.16628,354.79564h1.31373l-3.83902,-9.78002h-0.74445l-3.88281,9.78002h1.21155l1.06558,-2.80263h3.82443zM395.23228,346.94243l1.51809,4.05798h-3.07998z" data-paper-data="{&quot;glyphName&quot;:&quot;A&quot;,&quot;glyphIndex&quot;:20,&quot;lastGlyphOfWord&quot;:true,&quot;word&quot;:2}"></path>
            </g>
            <g data-paper-data="{&quot;isPrimaryText&quot;:true}" fill-rule="nonzero">
                <path d="M192.46275,322.2718c3.08528,0 5.69683,-0.08503 7.83466,-0.25508c2.13783,-0.17005 3.89911,-0.51624 5.28384,-1.03855c1.38473,-0.52231 2.45365,-1.28148 3.20675,-2.27752c0.7531,-0.99603 1.30578,-2.31396 1.65803,-3.95377c0.35226,-1.63981 0.55875,-3.65618 0.61948,-6.04909c0.06073,-2.39291 0.0911,-5.25347 0.0911,-8.58169c0,-3.32821 -0.03037,-6.18878 -0.0911,-8.58169c-0.06073,-2.39291 -0.26723,-4.40927 -0.61948,-6.04909c-0.35226,-1.63981 -0.90493,-2.95774 -1.65803,-3.95377c-0.7531,-0.99603 -1.82201,-1.75521 -3.20675,-2.27752c-1.38473,-0.52231 -3.13994,-0.86849 -5.26562,-1.03855c-2.12568,-0.17005 -4.74331,-0.25508 -7.85288,-0.25508h-34.94623v44.31139zM150.51998,328.10225v-55.97228h41.94277c4.27566,0 7.87718,0.24901 10.80454,0.74703c2.92737,0.49802 5.34458,1.25719 7.25162,2.27752c1.90704,1.02033 3.3768,2.29574 4.40927,3.82623c1.03247,1.53049 1.78557,3.33429 2.2593,5.41138c0.47372,2.0771 0.7531,4.42142 0.83813,7.03298c0.08503,2.61155 0.12754,5.50856 0.12754,8.69101c0,3.18245 -0.04251,6.07945 -0.12754,8.69101c-0.08503,2.61155 -0.3644,4.95588 -0.83813,7.03298c-0.47372,2.0771 -1.22682,3.88089 -2.2593,5.41138c-1.03247,1.53049 -2.50223,2.8059 -4.40927,3.82623c-1.90704,1.02033 -4.32425,1.7795 -7.25162,2.27752c-2.92737,0.49802 -6.52888,0.74703 -10.80454,0.74703z" data-paper-data="{&quot;glyphName&quot;:&quot;D&quot;,&quot;glyphIndex&quot;:0,&quot;firstGlyphOfWord&quot;:true,&quot;word&quot;:1}"></path>
                <path d="M274.16187,270.96388c4.27566,0 7.87718,0.26116 10.80454,0.78347c2.92737,0.52231 5.3385,1.31185 7.2334,2.36862c1.89489,1.05677 3.35251,2.38684 4.37283,3.99021c1.02033,1.60337 1.76735,3.48612 2.24108,5.64824c0.47372,2.16212 0.7531,4.60362 0.83813,7.3245c0.08503,2.72087 0.12754,5.73327 0.12754,9.03719c0,3.30392 -0.04251,6.31632 -0.12754,9.03719c-0.08503,2.72087 -0.3644,5.16237 -0.83813,7.3245c-0.47372,2.16212 -1.22075,4.04487 -2.24108,5.64824c-1.02033,1.60337 -2.47794,2.93344 -4.37283,3.99021c-1.89489,1.05677 -4.30603,1.84631 -7.2334,2.36862c-2.92737,0.52231 -6.52888,0.78347 -10.80454,0.78347h-21.06249c-4.27566,0 -7.87718,-0.26116 -10.80454,-0.78347c-2.92737,-0.52231 -5.3385,-1.31185 -7.2334,-2.36862c-1.89489,-1.05677 -3.35858,-2.38684 -4.39105,-3.99021c-1.03247,-1.60337 -1.78557,-3.48612 -2.2593,-5.64824c-0.47372,-2.16212 -0.74703,-4.60362 -0.81991,-7.3245c-0.07288,-2.72087 -0.10932,-5.73327 -0.10932,-9.03719c0,-3.30392 0.03644,-6.31632 0.10932,-9.03719c0.07288,-2.72087 0.34618,-5.16237 0.81991,-7.3245c0.47372,-2.16212 1.22682,-4.04487 2.2593,-5.64824c1.03247,-1.60337 2.49616,-2.93344 4.39105,-3.99021c1.89489,-1.05677 4.30603,-1.84631 7.2334,-2.36862c2.92737,-0.52231 6.52888,-0.78347 10.80454,-0.78347zM274.16187,323.43789c3.08528,0 5.69076,-0.0911 7.81644,-0.2733c2.12568,-0.1822 3.88089,-0.55268 5.26562,-1.11143c1.38473,-0.55875 2.45365,-1.36044 3.20675,-2.40506c0.7531,-1.04462 1.2997,-2.42935 1.63981,-4.15419c0.34011,-1.72484 0.54053,-3.84445 0.60126,-6.35883c0.06073,-2.51438 0.0911,-5.5207 0.0911,-9.01897c0,-3.49827 -0.03037,-6.50459 -0.0911,-9.01897c-0.06073,-2.51438 -0.26116,-4.63399 -0.60126,-6.35883c-0.34011,-1.72484 -0.88671,-3.10957 -1.63981,-4.15419c-0.7531,-1.04462 -1.81594,-1.84631 -3.18853,-2.40506c-1.37258,-0.55875 -3.12172,-0.92923 -5.2474,-1.11143c-2.12568,-0.1822 -4.74331,-0.2733 -7.85288,-0.2733h-21.06249c-3.10957,0 -5.7272,0.0911 -7.85288,0.2733c-2.12568,0.1822 -3.88089,0.55268 -5.26562,1.11143c-1.38473,0.55875 -2.45365,1.36044 -3.20675,2.40506c-0.7531,1.04462 -1.2997,2.42935 -1.63981,4.15419c-0.34011,1.72484 -0.53446,3.84445 -0.58304,6.35883c-0.04859,2.51438 -0.07288,5.5207 -0.07288,9.01897c0,3.49827 0.03037,6.50459 0.0911,9.01897c0.06073,2.51438 0.26116,4.63399 0.60126,6.35883c0.34011,1.72484 0.88064,3.10957 1.62159,4.15419c0.74095,1.04462 1.80379,1.84631 3.18853,2.40506c1.38473,0.55875 3.13994,0.92923 5.26562,1.11143c2.12568,0.1822 4.74331,0.2733 7.85288,0.2733z" data-paper-data="{&quot;glyphName&quot;:&quot;O&quot;,&quot;glyphIndex&quot;:1,&quot;word&quot;:1}"></path>
                <path d="M318.43682,276.79432v51.30792h-6.99653v-55.97228h11.66089l32.61406,48.97574l32.61406,-48.97574h11.15073v55.97228h-6.99653v-50.54268l-33.23354,50.54268h-7.06942z" data-paper-data="{&quot;glyphName&quot;:&quot;M&quot;,&quot;glyphIndex&quot;:2,&quot;lastGlyphOfWord&quot;:true,&quot;word&quot;:1}"></path>
            </g>
            <g data-paper-data="{&quot;isIcon&quot;:&quot;true&quot;,&quot;iconType&quot;:&quot;icon&quot;,&quot;rawIconId&quot;:&quot;721733&quot;,&quot;selectedEffects&quot;:{&quot;container&quot;:&quot;&quot;,&quot;transformation&quot;:&quot;&quot;,&quot;pattern&quot;:&quot;&quot;},&quot;isDetailed&quot;:false,&quot;fillRule&quot;:&quot;evenodd&quot;,&quot;bounds&quot;:{&quot;x&quot;:210.99208352158848,&quot;y&quot;:115.00000000000001,&quot;width&quot;:128.01583295682303,&quot;height&quot;:128.01583295682303},&quot;iconStyle&quot;:&quot;standalone&quot;,&quot;suitableAsStandaloneIcon&quot;:true}" fill-rule="evenodd">
                <path d="M275,243.01583l-64.00792,-64.00792l64.00792,-64.00792l64.00792,64.00792zM216.64878,179.00792l58.35122,58.35122l58.35122,-58.35122l-56.35097,-56.35097v59.35134h-4.00049v-59.35134z" data-paper-data="{&quot;isPathIcon&quot;:true}"></path>
            </g>
        </g>
    </g>
</svg>