<svg xmlns:mydata="http://www.w3.org/2000/svg" mydata:contrastcolor="271d3b" mydata:template="Contrast" mydata:presentation="1" mydata:layouttype="undefined" mydata:specialfontid="undefined" mydata:id1="021" mydata:id2="138" mydata:companyname="DOM" mydata:companytagline="Gastronomia Brasileira" version="1.1" xmlns="http://www.w3.org/2000/svg" xmlns:xlink="http://www.w3.org/1999/xlink" viewBox="60 160 500 150" class="svg-primary-tile" >
    <defs>
        <linearGradient x1="65" y1="235" x2="485" y2="235" gradientUnits="userSpaceOnUse" id="color-14161737224">
            <stop offset="0" stop-color="#fff"></stop>
            <stop offset="1" stop-color="#fff"></stop>
        </linearGradient>
    </defs>
    <g fill="url(#color-14161737224)" fill-rule="none" stroke="none" stroke-width="1" stroke-linecap="butt" stroke-linejoin="miter" stroke-miterlimit="10" stroke-dasharray="" stroke-dashoffset="0" font-family="none" font-weight="none" font-size="none" text-anchor="none" style="mix-blend-mode: normal;">
        <g data-paper-data="{&quot;isGlobalGroup&quot;:true,&quot;bounds&quot;:{&quot;x&quot;:65,&quot;y&quot;:180.87968168217188,&quot;width&quot;:419.9999999999999,&quot;height&quot;:108.24063663565627}}">
            <g data-paper-data="{&quot;isSecondaryText&quot;:true}" fill-rule="nonzero">
                <path d="M223.10474,280.10027c1.44144,0 2.69486,-0.36036 3.44692,-0.67372v-4.68467h-3.27457v1.04974h2.02115v2.85154c-0.50137,0.18801 -1.25342,0.31336 -2.00548,0.31336c-2.44418,0 -4.1833,-1.42577 -4.1833,-4.15197c0,-2.91421 1.45711,-4.46532 4.1833,-4.46532c1.04974,0 2.09949,0.29769 2.78887,0.67372l0.23502,-1.15942c-0.70505,-0.36036 -1.77046,-0.68938 -3.11789,-0.68938c-3.52526,0 -5.42106,2.17782 -5.42106,5.64041c0,3.41558 2.16216,5.29572 5.32705,5.29572z" data-paper-data="{&quot;glyphName&quot;:&quot;G&quot;,&quot;glyphIndex&quot;:0,&quot;firstGlyphOfWord&quot;:true,&quot;word&quot;:1}"></path>
                <path d="M239.57283,279.88092h1.4101l-4.12063,-10.49743h-0.79906l-4.16764,10.49743h1.30043l1.14375,-3.00822h4.10496zM236.4236,271.45164l1.62945,4.35565h-3.30591z" data-paper-data="{&quot;glyphName&quot;:&quot;A&quot;,&quot;glyphIndex&quot;:1,&quot;word&quot;:1}"></path>
                <path d="M248.86845,280.10027c1.97414,0 3.41558,-1.17509 3.41558,-2.96121c0,-1.8018 -1.58245,-2.55385 -2.94555,-3.24323c-1.3631,-0.68938 -2.00548,-1.14375 -2.00548,-2.05248c0,-0.86173 0.75205,-1.59812 2.03681,-1.59812c0.81473,0 1.66079,0.26635 2.3345,0.75205l0.20368,-1.15942c-0.70505,-0.47003 -1.56678,-0.67372 -2.58519,-0.67372c-1.83313,0 -3.2589,0.9714 -3.2589,2.8202c0,1.48844 0.98707,2.19349 2.25616,2.85154c1.58245,0.83039 2.63219,1.20642 2.63219,2.35017c0,1.19075 -0.9244,1.83313 -2.14649,1.83313c-0.84606,0 -1.83313,-0.26635 -2.78887,-0.83039l-0.17235,1.17509c0.57971,0.32902 1.66079,0.73639 3.02389,0.73639z" data-paper-data="{&quot;glyphName&quot;:&quot;S&quot;,&quot;glyphIndex&quot;:2,&quot;word&quot;:1}"></path>
                <path d="M261.01386,279.88092h1.25342v-9.44768h3.55659v-1.04974h-8.36661v1.04974h3.55659z" data-paper-data="{&quot;glyphName&quot;:&quot;T&quot;,&quot;glyphIndex&quot;:3,&quot;word&quot;:1}"></path>
                <path d="M279.09125,279.88092v-0.98707h-0.34469c-0.29769,0 -0.51704,-0.10967 -0.76772,-0.53271l-1.3631,-2.2405c-0.23502,-0.40736 -0.54837,-0.79906 -0.9244,-1.00274c1.69212,-0.37603 2.36584,-1.56678 2.36584,-2.99255c0,-1.77046 -1.26909,-2.74187 -3.33724,-2.74187h-3.10222v10.49743h1.25342v-4.63767h0.9714c0.84606,0 1.04974,0.36036 1.39443,0.94007l1.66079,2.75753c0.4857,0.79906 0.98707,1.01841 1.61378,1.01841c0.20368,0 0.37603,-0.03134 0.57971,-0.07834zM272.87113,270.43323h1.53544c1.47277,0 2.35017,0.53271 2.35017,1.69212c0,1.22209 -0.54837,2.02115 -2.16216,2.02115h-1.72346z" data-paper-data="{&quot;glyphName&quot;:&quot;R&quot;,&quot;glyphIndex&quot;:4,&quot;word&quot;:1}"></path>
                <path d="M288.32138,280.10027c3.32157,0 4.82568,-2.53818 4.82568,-5.53073c0,-2.91421 -1.50411,-5.40539 -4.82568,-5.40539c-3.30591,0 -4.79435,2.61652 -4.79435,5.42106c0,2.91421 1.45711,5.51507 4.79435,5.51507zM288.32138,279.00352c-2.3345,0 -3.43125,-1.92714 -3.43125,-4.41832c0,-2.36584 1.09675,-4.30865 3.43125,-4.30865c2.31883,0 3.46258,1.78613 3.46258,4.29298c0,2.53818 -1.14375,4.43399 -3.46258,4.43399z" data-paper-data="{&quot;glyphName&quot;:&quot;O&quot;,&quot;glyphIndex&quot;:5,&quot;word&quot;:1}"></path>
                <path d="M299.14051,279.88092h1.25342v-8.55462l6.23578,8.55462h0.72072v-10.49743h-1.25342v7.58322l-5.53073,-7.58322h-1.42577z" data-paper-data="{&quot;glyphName&quot;:&quot;N&quot;,&quot;glyphIndex&quot;:6,&quot;word&quot;:1}"></path>
                <path d="M318.13822,280.10027c3.32157,0 4.82568,-2.53818 4.82568,-5.53073c0,-2.91421 -1.50411,-5.40539 -4.82568,-5.40539c-3.30591,0 -4.79435,2.61652 -4.79435,5.42106c0,2.91421 1.45711,5.51507 4.79435,5.51507zM318.13822,279.00352c-2.3345,0 -3.43125,-1.92714 -3.43125,-4.41832c0,-2.36584 1.09675,-4.30865 3.43125,-4.30865c2.31883,0 3.46258,1.78613 3.46258,4.29298c0,2.53818 -1.14375,4.43399 -3.46258,4.43399z" data-paper-data="{&quot;glyphName&quot;:&quot;O&quot;,&quot;glyphIndex&quot;:7,&quot;word&quot;:1}"></path>
                <path d="M328.99736,279.88092h1.25342v-8.00625l3.54092,8.00625h0.78339l3.52526,-7.94358v7.94358h1.25342v-10.49743h-1.39443l-3.7446,8.55462l-3.71327,-8.55462h-1.50411z" data-paper-data="{&quot;glyphName&quot;:&quot;M&quot;,&quot;glyphIndex&quot;:8,&quot;word&quot;:1}"></path>
                <path d="M345.71883,279.88092h1.25342v-10.49743h-1.25342z" data-paper-data="{&quot;glyphName&quot;:&quot;I&quot;,&quot;glyphIndex&quot;:9,&quot;word&quot;:1}"></path>
                <path d="M360.09702,279.88092h1.4101l-4.12063,-10.49743h-0.79906l-4.16764,10.49743h1.30043l1.14375,-3.00822h4.10496zM356.94779,271.45164l1.62945,4.35565h-3.30591z" data-paper-data="{&quot;glyphName&quot;:&quot;A&quot;,&quot;glyphIndex&quot;:10,&quot;lastGlyphOfWord&quot;:true,&quot;word&quot;:1}"></path>
                <path d="M374.1824,279.88092h3.35291c2.19349,0 3.47825,-1.20642 3.47825,-2.94555c0,-1.44144 -0.84606,-2.45984 -2.2405,-2.69486c0.9714,-0.36036 1.62945,-1.17509 1.62945,-2.36584c0,-1.8018 -1.14375,-2.49118 -3.27457,-2.49118h-2.94555zM375.43582,274.88289h1.53544c1.69212,0 2.69486,0.70505 2.69486,2.02115c0,1.25342 -0.72072,1.92714 -2.25616,1.92714h-1.97414zM375.43582,270.43323h1.61378c1.26909,0 2.02115,0.3917 2.02115,1.55111c0,1.17509 -0.89306,1.8488 -2.27183,1.8488h-1.3631z" data-paper-data="{&quot;glyphName&quot;:&quot;B&quot;,&quot;glyphIndex&quot;:11,&quot;firstGlyphOfWord&quot;:true,&quot;word&quot;:2}"></path>
                <path d="M394.33357,279.88092v-0.98707h-0.34469c-0.29769,0 -0.51704,-0.10967 -0.76772,-0.53271l-1.3631,-2.2405c-0.23502,-0.40736 -0.54837,-0.79906 -0.9244,-1.00274c1.69212,-0.37603 2.36584,-1.56678 2.36584,-2.99255c0,-1.77046 -1.26909,-2.74187 -3.33724,-2.74187h-3.10222v10.49743h1.25342v-4.63767h0.9714c0.84606,0 1.04974,0.36036 1.39443,0.94007l1.66079,2.75753c0.4857,0.79906 0.98707,1.01841 1.61378,1.01841c0.20368,0 0.37603,-0.03134 0.57971,-0.07834zM388.11345,270.43323h1.53544c1.47277,0 2.35017,0.53271 2.35017,1.69212c0,1.22209 -0.54837,2.02115 -2.16216,2.02115h-1.72346z" data-paper-data="{&quot;glyphName&quot;:&quot;R&quot;,&quot;glyphIndex&quot;:12,&quot;word&quot;:2}"></path>
                <path d="M406.76168,279.88092h1.4101l-4.12063,-10.49743h-0.79906l-4.16764,10.49743h1.30043l1.14375,-3.00822h4.10496zM403.61246,271.45164l1.62945,4.35565h-3.30591z" data-paper-data="{&quot;glyphName&quot;:&quot;A&quot;,&quot;glyphIndex&quot;:13,&quot;word&quot;:2}"></path>
                <path d="M416.0573,280.10027c1.97414,0 3.41558,-1.17509 3.41558,-2.96121c0,-1.8018 -1.58245,-2.55385 -2.94555,-3.24323c-1.3631,-0.68938 -2.00548,-1.14375 -2.00548,-2.05248c0,-0.86173 0.75205,-1.59812 2.03681,-1.59812c0.81473,0 1.66079,0.26635 2.3345,0.75205l0.20368,-1.15942c-0.70505,-0.47003 -1.56678,-0.67372 -2.58519,-0.67372c-1.83313,0 -3.2589,0.9714 -3.2589,2.8202c0,1.48844 0.98707,2.19349 2.25616,2.85154c1.58245,0.83039 2.63219,1.20642 2.63219,2.35017c0,1.19075 -0.9244,1.83313 -2.14649,1.83313c-0.84606,0 -1.83313,-0.26635 -2.78887,-0.83039l-0.17235,1.17509c0.57971,0.32902 1.66079,0.73639 3.02389,0.73639z" data-paper-data="{&quot;glyphName&quot;:&quot;S&quot;,&quot;glyphIndex&quot;:14,&quot;word&quot;:2}"></path>
                <path d="M425.16361,279.88092h1.25342v-10.49743h-1.25342z" data-paper-data="{&quot;glyphName&quot;:&quot;I&quot;,&quot;glyphIndex&quot;:15,&quot;word&quot;:2}"></path>
                <path d="M432.70294,279.88092h6.11044v-1.03407h-4.85702v-9.46335h-1.25342z" data-paper-data="{&quot;glyphName&quot;:&quot;L&quot;,&quot;glyphIndex&quot;:16,&quot;word&quot;:2}"></path>
                <path d="M444.45557,279.88092h5.95376v-1.04974h-4.70034v-3.94829h3.7446v-1.04974h-3.7446v-3.39991h4.65334v-1.04974h-5.90676z" data-paper-data="{&quot;glyphName&quot;:&quot;E&quot;,&quot;glyphIndex&quot;:17,&quot;word&quot;:2}"></path>
                <path d="M456.1235,279.88092h1.25342v-10.49743h-1.25342z" data-paper-data="{&quot;glyphName&quot;:&quot;I&quot;,&quot;glyphIndex&quot;:18,&quot;word&quot;:2}"></path>
                <path d="M471.16178,279.88092v-0.98707h-0.34469c-0.29769,0 -0.51704,-0.10967 -0.76772,-0.53271l-1.3631,-2.2405c-0.23502,-0.40736 -0.54837,-0.79906 -0.9244,-1.00274c1.69212,-0.37603 2.36584,-1.56678 2.36584,-2.99255c0,-1.77046 -1.26909,-2.74187 -3.33724,-2.74187h-3.10222v10.49743h1.25342v-4.63767h0.9714c0.84606,0 1.04974,0.36036 1.39443,0.94007l1.66079,2.75753c0.4857,0.79906 0.98707,1.01841 1.61378,1.01841c0.20368,0 0.37603,-0.03134 0.57971,-0.07834zM464.94167,270.43323h1.53544c1.47277,0 2.35017,0.53271 2.35017,1.69212c0,1.22209 -0.54837,2.02115 -2.16216,2.02115h-1.72346z" data-paper-data="{&quot;glyphName&quot;:&quot;R&quot;,&quot;glyphIndex&quot;:19,&quot;word&quot;:2}"></path>
                <path d="M483.5899,279.88092h1.4101l-4.12063,-10.49743h-0.79906l-4.16764,10.49743h1.30043l1.14375,-3.00822h4.10496zM480.44067,271.45164l1.62945,4.35565h-3.30591z" data-paper-data="{&quot;glyphName&quot;:&quot;A&quot;,&quot;glyphIndex&quot;:20,&quot;lastGlyphOfWord&quot;:true,&quot;word&quot;:2}"></path>
            </g>
            <g data-paper-data="{&quot;isPrimaryText&quot;:true}" fill-rule="nonzero">
                <path d="M262.79714,244.97131c3.3116,0 6.11472,-0.09126 8.40937,-0.27379c2.29465,-0.18253 4.18513,-0.55411 5.67143,-1.11473c1.48631,-0.56062 2.63363,-1.37549 3.44197,-2.44458c0.80834,-1.0691 1.40156,-2.4837 1.77966,-4.2438c0.3781,-1.7601 0.59974,-3.92437 0.66493,-6.49281c0.06519,-2.56844 0.09778,-5.63884 0.09778,-9.21119c0,-3.57235 -0.03259,-6.64275 -0.09778,-9.21119c-0.06519,-2.56844 -0.28683,-4.73271 -0.66493,-6.49281c-0.3781,-1.7601 -0.97131,-3.1747 -1.77966,-4.2438c-0.80834,-1.0691 -1.95567,-1.88396 -3.44197,-2.44458c-1.48631,-0.56062 -3.37027,-0.9322 -5.65188,-1.11473c-2.28161,-0.18253 -5.09125,-0.27379 -8.42892,-0.27379h-37.50969v47.56182zM217.77769,251.22945v-60.07808h45.01945c4.5893,0 8.455,0.26727 11.5971,0.80182c3.1421,0.53455 5.73662,1.34941 7.78355,2.44458c2.04693,1.09517 3.6245,2.46414 4.73271,4.1069c1.10821,1.64276 1.91655,3.57887 2.42503,5.80833c0.50847,2.22946 0.80834,4.74575 0.89961,7.54887c0.09126,2.80312 0.1369,5.91263 0.1369,9.32853c0,3.4159 -0.04563,6.52541 -0.1369,9.32853c-0.09126,2.80312 -0.39113,5.31941 -0.89961,7.54887c-0.50847,2.22946 -1.31682,4.16557 -2.42503,5.80833c-1.10821,1.64276 -2.68578,3.01173 -4.73271,4.1069c-2.04693,1.09517 -4.64145,1.91003 -7.78355,2.44458c-3.1421,0.53455 -7.00781,0.80182 -11.5971,0.80182z" data-paper-data="{&quot;glyphName&quot;:&quot;D&quot;,&quot;glyphIndex&quot;:0,&quot;firstGlyphOfWord&quot;:true,&quot;word&quot;:1}"></path>
                <path d="M350.48924,189.89973c4.5893,0 8.455,0.28031 11.5971,0.84094c3.1421,0.56062 5.7301,1.40808 7.764,2.54237c2.03389,1.13429 3.59843,2.56192 4.6936,4.28291c1.09517,1.72099 1.897,3.74184 2.40547,6.06257c0.50847,2.32072 0.80834,4.94132 0.89961,7.86178c0.09126,2.92046 0.1369,6.15383 0.1369,9.70011c0,3.54628 -0.04563,6.77964 -0.1369,9.70011c-0.09126,2.92046 -0.39113,5.54106 -0.89961,7.86178c-0.50847,2.32072 -1.3103,4.34158 -2.40547,6.06257c-1.09517,1.72099 -2.65971,3.14862 -4.6936,4.28291c-2.03389,1.13429 -4.62189,1.98174 -7.764,2.54237c-3.1421,0.56062 -7.00781,0.84094 -11.5971,0.84094h-22.60751c-4.5893,0 -8.455,-0.28031 -11.5971,-0.84094c-3.1421,-0.56062 -5.7301,-1.40808 -7.764,-2.54237c-2.03389,-1.13429 -3.60495,-2.56192 -4.71316,-4.28291c-1.10821,-1.72099 -1.91655,-3.74184 -2.42503,-6.06257c-0.50847,-2.32072 -0.80182,-4.94132 -0.88005,-7.86178c-0.07823,-2.92046 -0.11734,-6.15383 -0.11734,-9.70011c0,-3.54628 0.03911,-6.77964 0.11734,-9.70011c0.07823,-2.92046 0.37158,-5.54106 0.88005,-7.86178c0.50847,-2.32072 1.31682,-4.34158 2.42503,-6.06257c1.10821,-1.72099 2.67926,-3.14862 4.71316,-4.28291c2.03389,-1.13429 4.62189,-1.98174 7.764,-2.54237c3.1421,-0.56062 7.00781,-0.84094 11.5971,-0.84094zM350.48924,246.22294c3.3116,0 6.1082,-0.09778 8.38981,-0.29335c2.28161,-0.19557 4.16557,-0.59322 5.65188,-1.19296c1.48631,-0.59974 2.63363,-1.46023 3.44197,-2.58148c0.80834,-1.12125 1.39504,-2.60756 1.7601,-4.45892c0.36506,-1.85136 0.58018,-4.12646 0.64537,-6.82528c0.06519,-2.69882 0.09778,-5.92567 0.09778,-9.68055c0,-3.75488 -0.03259,-6.98173 -0.09778,-9.68055c-0.06519,-2.69882 -0.28031,-4.97391 -0.64537,-6.82528c-0.36506,-1.85136 -0.95176,-3.33767 -1.7601,-4.45892c-0.80834,-1.12125 -1.94915,-1.98174 -3.42242,-2.58148c-1.47327,-0.59974 -3.35071,-0.99739 -5.63232,-1.19296c-2.28161,-0.19557 -5.09125,-0.29335 -8.42892,-0.29335h-22.60751c-3.33767,0 -6.14731,0.09778 -8.42892,0.29335c-2.28161,0.19557 -4.16557,0.59322 -5.65188,1.19296c-1.48631,0.59974 -2.63363,1.46023 -3.44197,2.58148c-0.80834,1.12125 -1.39504,2.60756 -1.7601,4.45892c-0.36506,1.85136 -0.57366,4.12646 -0.62581,6.82528c-0.05215,2.69882 -0.07823,5.92567 -0.07823,9.68055c0,3.75488 0.03259,6.98173 0.09778,9.68055c0.06519,2.69882 0.28031,4.97391 0.64537,6.82528c0.36506,1.85136 0.94524,3.33767 1.74054,4.45892c0.7953,1.12125 1.93611,1.98174 3.42242,2.58148c1.48631,0.59974 3.37027,0.99739 5.65188,1.19296c2.28161,0.19557 5.09125,0.29335 8.42892,0.29335z" data-paper-data="{&quot;glyphName&quot;:&quot;O&quot;,&quot;glyphIndex&quot;:1,&quot;word&quot;:1}"></path>
                <path d="M398.01194,196.15787v55.07158h-7.50976v-60.07808h12.51627l35.00644,52.56832l35.00644,-52.56832h11.96868v60.07808h-7.50976v-54.2502l-35.67136,54.2502h-7.58799z" data-paper-data="{&quot;glyphName&quot;:&quot;M&quot;,&quot;glyphIndex&quot;:2,&quot;lastGlyphOfWord&quot;:true,&quot;word&quot;:1}"></path>
            </g>
            <g data-paper-data="{&quot;fillRule&quot;:&quot;evenodd&quot;,&quot;fillRuleOriginal&quot;:&quot;evenodd&quot;,&quot;isIcon&quot;:true,&quot;iconStyle&quot;:&quot;standalone&quot;,&quot;selectedEffects&quot;:{&quot;container&quot;:&quot;&quot;,&quot;transformation&quot;:&quot;&quot;,&quot;pattern&quot;:&quot;&quot;},&quot;bounds&quot;:{&quot;x&quot;:65,&quot;y&quot;:180.87968168217188,&quot;width&quot;:108.24063663565622,&quot;height&quot;:108.24063663565627},&quot;iconType&quot;:&quot;icon&quot;,&quot;rawIconId&quot;:&quot;721733&quot;,&quot;isDetailed&quot;:false,&quot;suitableAsStandaloneIcon&quot;:true}" fill-rule="evenodd">
                <path d="M119.12032,289.12032l-54.12032,-54.12032l54.12032,-54.12032l54.12032,54.12032zM69.78288,235l49.33744,49.33744l49.33744,-49.33744l-47.64618,-47.64618v50.18307h-3.38252v-50.18307z" data-paper-data="{&quot;isPathIcon&quot;:true}"></path>
            </g>
        </g>
    </g>
</svg>